<svg width="61" height="76" viewBox="0 0 61 76" fill="none" xmlns="http://www.w3.org/2000/svg">
<path d="M25.9829 6.39377C27.9567 3.37746 32.3768 3.37745 34.3506 6.39376L51.2286 32.1867C53.4046 35.5121 51.0189 39.9245 47.0448 39.9245H13.2888C9.31465 39.9245 6.92887 35.5121 9.1049 32.1867L25.9829 6.39377Z" fill="#2C3333"/>
<path d="M28.3484 10.045C29.1382 8.84045 30.9038 8.84045 31.6936 10.045L46.6697 32.8871C47.5417 34.2172 46.5875 35.9837 44.9971 35.9837H15.0449C13.4545 35.9837 12.5003 34.2172 13.3724 32.8871L28.3484 10.045Z" fill="white"/>
<g filter="url(#filter0_d_20_56)">
<path d="M26.6781 17.2329C28.2581 14.8283 31.784 14.8283 33.364 17.2329L40.0848 27.4614C41.8325 30.1213 39.9246 33.658 36.7419 33.658H23.3002C20.1175 33.658 18.2095 30.1213 19.9572 27.4615L26.6781 17.2329Z" fill="#9FFFAF"/>
</g>
<path d="M34.3506 69.6062C32.3768 72.6225 27.9567 72.6225 25.9829 69.6062L9.10491 43.8133C6.92887 40.4879 9.31465 36.0755 13.2888 36.0755L47.0447 36.0755C51.0189 36.0755 53.4046 40.4879 51.2286 43.8133L34.3506 69.6062Z" fill="#2C3333"/>
<path d="M31.9851 65.955C31.1953 67.1595 29.4297 67.1595 28.6399 65.955L13.6638 43.1129C12.7918 41.7828 13.746 40.0163 15.3364 40.0163H45.2886C46.879 40.0163 47.8332 41.7828 46.9611 43.1129L31.9851 65.955Z" fill="white"/>
<g filter="url(#filter1_d_20_56)">
<path d="M33.6554 58.767C32.0754 61.1716 28.5495 61.1717 26.9695 58.767L20.2487 48.5385C18.501 45.8786 20.4089 42.342 23.5916 42.342H37.0333C40.216 42.342 42.124 45.8786 40.3763 48.5385L33.6554 58.767Z" fill="#AAE6FF"/>
</g>
<defs>
<filter id="filter0_d_20_56" x="15.2935" y="15.4295" width="29.455" height="26.2285" filterUnits="userSpaceOnUse" color-interpolation-filters="sRGB">
<feFlood flood-opacity="0" result="BackgroundImageFix"/>
<feColorMatrix in="SourceAlpha" type="matrix" values="0 0 0 0 0 0 0 0 0 0 0 0 0 0 0 0 0 0 127 0" result="hardAlpha"/>
<feOffset dy="4"/>
<feGaussianBlur stdDeviation="2"/>
<feComposite in2="hardAlpha" operator="out"/>
<feColorMatrix type="matrix" values="0 0 0 0 0 0 0 0 0 0 0 0 0 0 0 0 0 0 0.25 0"/>
<feBlend mode="normal" in2="BackgroundImageFix" result="effect1_dropShadow_20_56"/>
<feBlend mode="normal" in="SourceGraphic" in2="effect1_dropShadow_20_56" result="shape"/>
</filter>
<filter id="filter1_d_20_56" x="15.585" y="42.342" width="29.455" height="26.2285" filterUnits="userSpaceOnUse" color-interpolation-filters="sRGB">
<feFlood flood-opacity="0" result="BackgroundImageFix"/>
<feColorMatrix in="SourceAlpha" type="matrix" values="0 0 0 0 0 0 0 0 0 0 0 0 0 0 0 0 0 0 127 0" result="hardAlpha"/>
<feOffset dy="4"/>
<feGaussianBlur stdDeviation="2"/>
<feComposite in2="hardAlpha" operator="out"/>
<feColorMatrix type="matrix" values="0 0 0 0 0 0 0 0 0 0 0 0 0 0 0 0 0 0 0.25 0"/>
<feBlend mode="normal" in2="BackgroundImageFix" result="effect1_dropShadow_20_56"/>
<feBlend mode="normal" in="SourceGraphic" in2="effect1_dropShadow_20_56" result="shape"/>
</filter>
</defs>
</svg>
